<svg xmlns="http://www.w3.org/2000/svg" viewBox="0 0 100 125" x="0px" y="0px">
  <defs>
    <linearGradient id="guitarGradient" x1="0%" y1="0%" x2="100%" y2="0%">
      <stop offset="0%" style="stop-color:#FFDB6E;stop-opacity:1" />
      <stop offset="100%" style="stop-color:#FFBC5E;stop-opacity:1" />
    </linearGradient>
  </defs>
  <g data-name="Layer 2">
    <path d="M44.61,88.39l6.63-14.13A7.66,7.66,0,0,1,52.86,72l3-2.83a9.23,9.23,0,0,0-.43-13.75l-1.47-1.23,19.31-23A1.37,1.37,0,0,0,74.31,31l3-2.17,1.63,1.37A3.17,3.17,0,1,0,80,28.87l-1.48-1.25,1.91-2.27,1.08-1.29,1.91-2.27L84.89,23A3.16,3.16,0,1,0,86,21.75L84.48,20.5l1-1.13a3.18,3.18,0,0,0-.39-4.46L78.82,9.69a3.16,3.16,0,0,0-4.46.39l-1,1.13L71.93,10a3.17,3.17,0,1,0-1.08,1.28l1.48,1.25-1.91,2.27-1.08,1.29-1.9,2.27L66,17.09a3.15,3.15,0,1,0-1.07,1.28l1.61,1.35-1.61,3.33a1.4,1.4,0,0,0,0,1.08l-19.3,23-1.47-1.23a9.22,9.22,0,0,0-13.62,2L28.2,51.29a8.11,8.11,0,0,1-2,2l-12.84,9a12,12,0,0,0-4.31,9.33,14.89,14.89,0,0,0,5.67,11l9.57,8a14.86,14.86,0,0,0,11.8,3.68A12,12,0,0,0,44.61,88.39Z" fill="none" stroke="url(#guitarGradient)" stroke-width="1.5"/>
  </g>
</svg>
